<?xml version="1.0" encoding="UTF-8"?>
<svg version="1.1" xmlns="http://www.w3.org/2000/svg" width="1365" height="1365">
<path d="M0 0 C7.84284491 -0.09178604 15.68479348 -0.10313399 23.52809906 -0.09566045 C26.39114273 -0.09372638 29.25418035 -0.09545632 32.11722386 -0.09711033 C40.08090314 -0.10165804 48.04456446 -0.09869271 56.00824177 -0.09226424 C61.98041805 -0.08744378 67.95259247 -0.08461152 73.92477036 -0.08275604 C142.13234662 -0.05892949 210.33957764 0.17029614 278.54660517 0.42882609 C287.63048579 0.46320419 296.71437101 0.49600205 305.79826035 0.52798714 C318.55787307 0.5729602 331.31746409 0.62150796 344.07704365 0.67522925 C350.30749486 0.7014413 356.53794329 0.72640057 362.76841354 0.74765968 C406.2795879 0.89858664 406.2795879 0.89858664 423.66662216 1.43332672 C424.73660352 1.46297988 425.80658487 1.49263304 426.90898991 1.52318478 C432.41335235 1.72833133 437.8690935 2.1850187 443.34016037 2.82637787 C445.05498092 3.02701418 445.05498092 3.02701418 446.80444431 3.23170376 C450.29481628 4.16252206 451.5511677 5.29278122 453.82995224 8.03855133 C454.56210449 8.90428268 455.29425674 9.77001404 456.04859543 10.66197968 C458.46378762 15.23998978 458.38464717 18.96371786 458.33166122 24.06369781 C458.3397657 25.55507263 458.3397657 25.55507263 458.34803391 27.07657623 C458.36051404 30.35457113 458.34403307 33.63168646 458.32604599 36.90964508 C458.32620101 39.19358618 458.32769042 41.47752755 458.33045578 43.76146698 C458.3318395 48.54543453 458.31928673 53.32910219 458.29650497 58.11301422 C458.26813691 64.237466 458.27085386 70.36141896 458.28359509 76.48590755 C458.29055918 81.20174652 458.28275428 85.91747074 458.27033806 90.63329506 C458.26582955 92.89107638 458.26548149 95.14887004 458.26940346 97.40665245 C458.27232234 100.56602735 458.255775 103.72472155 458.23400497 106.88401031 C458.24075745 108.27680962 458.24075745 108.27680962 458.24764633 109.69774628 C458.17581884 115.98957154 457.43003046 121.13155965 453.07604599 125.99948883 C452.47921005 126.46612946 451.88237411 126.93277008 451.26745224 127.41355133 C450.66803818 127.89566071 450.06862411 128.37777008 449.45104599 128.87448883 C443.06381178 133.46098472 432.9515976 132.18788085 425.4033165 132.19004059 C424.28175958 132.194273 423.16020267 132.19850541 422.00465918 132.20286608 C418.25957316 132.21584288 414.51450842 132.22190642 410.76940536 132.22800446 C408.07554521 132.23595327 405.38168897 132.24429294 402.68783188 132.25313568 C396.88172035 132.27145929 391.07560832 132.28632047 385.26948166 132.29891205 C376.804158 132.31735108 368.33886082 132.34202442 359.87355822 132.36828595 C346.0436021 132.41109804 332.21363827 132.4501648 318.38366318 132.48630524 C317.14287082 132.48954944 317.14287082 132.48954944 315.87701195 132.49285918 C311.69525389 132.50378074 307.51349573 132.51466183 303.33173752 132.52552795 C295.08016508 132.54698848 286.8285935 132.56877056 278.57702255 132.59079742 C277.36323601 132.59403573 277.36323601 132.59403573 276.12492853 132.59733945 C262.41162034 132.63403405 248.69832343 132.67405337 234.98503065 132.71610022 C227.3310119 132.73942167 219.67699602 132.76107409 212.02296066 132.77819061 C170.6179104 132.87129242 129.22864463 133.29525105 87.82995224 134.03855133 C90.31075669 137.83755608 92.59531162 141.04651582 96.01745224 144.03855133 C96.71225693 144.65730133 97.40706161 145.27605133 98.12292099 145.91355133 C99.0162413 146.61480133 99.90956161 147.31605133 100.82995224 148.03855133 C101.74041856 148.77646471 101.74041856 148.77646471 102.66927814 149.52928543 C108.79772002 154.1044998 113.49517359 154.91662482 121.03087997 154.87155914 C122.11518799 154.88872986 123.199496 154.90590057 124.31666183 154.92359161 C127.88255802 154.97355268 131.44733218 154.98246083 135.01354599 154.99167633 C137.51350354 155.02033616 140.01342976 155.0518573 142.51331711 155.08609772 C148.42016415 155.16117625 154.32678459 155.21148182 160.23398596 155.24834704 C171.39765657 155.31906838 182.56074418 155.44813783 193.72385979 155.57806396 C197.36269352 155.61576103 201.00139997 155.6395736 204.64036179 155.66092682 C214.44899941 155.73709378 224.21539634 155.86073393 233.97863388 156.87741852 C234.66916823 156.94590626 235.35970259 157.014394 236.07116222 157.08495712 C241.56135445 157.74898788 247.69650514 158.9739251 251.76745224 162.91355133 C253.64545002 166.66954689 253.954675 170.49572994 253.96366501 174.64812469 C253.96792999 175.54375122 253.97219498 176.43937775 253.9765892 177.36214447 C253.97613602 178.33212875 253.97568283 179.30211304 253.97521591 180.30149078 C253.98025383 181.84875854 253.98025383 181.84875854 253.98539352 183.42728424 C253.99488812 186.83547929 253.99684593 190.24362513 253.99792099 193.65183258 C254.00113475 196.02448802 254.00449891 198.39714326 254.00800705 200.76979828 C254.01399469 205.74374603 254.01584734 210.71767641 254.01525497 215.6916275 C254.01515341 222.05691714 254.02880186 228.4220951 254.04602718 234.78735828 C254.05716049 239.68849445 254.05917377 244.58960375 254.05864525 249.49075127 C254.0598235 251.83702924 254.06423656 254.18330794 254.07197762 256.52957344 C254.08180361 259.81560398 254.07888896 263.10139364 254.07287216 266.38742828 C254.07849167 267.35133987 254.08411118 268.31525146 254.08990097 269.3083725 C254.02871617 282.49623053 254.02871617 282.49623053 249.82995224 287.35105133 C239.60726739 293.10131156 228.25492989 293.23074722 216.82995224 293.03855133 C216.94481649 295.41442757 217.0715338 297.78870304 217.20495224 300.16355133 C217.25135849 301.16128571 217.25135849 301.16128571 217.29870224 302.17917633 C217.55045906 306.45904235 218.40885253 310.01459532 219.82995224 314.03855133 C220.59750715 314.03817161 221.36506207 314.03779189 222.15587622 314.03740066 C267.63286332 314.01502959 313.10984982 313.99786831 358.58684132 313.987486 C364.04556385 313.98623527 369.50428637 313.98494095 374.96300888 313.98361969 C376.59313029 313.98322622 376.59313029 313.98322622 378.25618344 313.98282481 C395.85980775 313.9784718 413.4634288 313.97058626 431.06705118 313.96139853 C449.12581295 313.95205177 467.18457301 313.94649355 485.24333709 313.94446284 C496.38932123 313.94308974 507.53529615 313.93875065 518.68127745 313.93063486 C526.32126819 313.9253548 533.96125416 313.92374992 541.6012466 313.92504995 C546.01112538 313.92569135 550.42098803 313.9246981 554.83086395 313.91934586 C558.8682448 313.91448144 562.90559867 313.91423273 566.94298076 313.91765244 C568.40339228 313.91807513 569.86380548 313.91680508 571.32421369 313.91366815 C573.31077 313.90964926 575.29733656 313.91241796 577.28389454 313.9155035 C578.3869821 313.91512378 579.49006966 313.91474406 580.62658411 313.91435283 C587.33839927 314.17457811 591.51202779 314.76370336 596.38854599 319.37839508 C602.5147268 326.43429439 601.00458379 339.98906277 601.14635849 348.78855133 C601.16754745 349.90462769 601.18873642 351.02070404 601.21056747 352.17060089 C601.39331067 362.10820683 601.53060623 372.04670391 601.6613884 381.98511505 C601.75549494 388.89645378 601.89219532 395.80394937 602.09132004 402.71305084 C602.1966344 406.55477211 602.27001909 410.39665406 602.3357811 414.23923492 C602.37316253 416.00326828 602.42455467 417.76706788 602.49087143 419.53025055 C603.0427072 434.53873836 603.0427072 434.53873836 598.00573349 441.07370758 C594.55881271 444.75845675 591.94550106 446.42115751 586.82995224 447.03855133 C586.15718134 447.12336474 585.48441045 447.20817816 584.79125255 447.29556167 C577.36526417 448.14498025 569.9957937 448.17821735 562.52796555 448.16553497 C561.09586848 448.16668895 559.66377172 448.16827832 558.23167557 448.17026222 C554.31915158 448.17441763 550.40665215 448.17238203 546.49412811 448.169276 C542.26569511 448.16700662 538.03726624 448.17050918 533.80883408 448.17325592 C525.53402505 448.17769626 517.2592251 448.17674483 508.98441572 448.17384328 C502.25705878 448.17158228 495.52970439 448.17127975 488.80234718 448.1723671 C487.36456793 448.17259695 487.36456793 448.17259695 485.89774264 448.17283144 C483.95034202 448.17315117 482.00294141 448.17347539 480.05554079 448.17380403 C461.80589677 448.17665378 443.55625777 448.17337979 425.30661457 448.16800366 C409.65936198 448.1635368 394.01211681 448.16431157 378.36486435 448.16892242 C360.18079425 448.17427833 341.99672855 448.17637838 323.81265777 448.17331016 C321.87222954 448.17299162 319.9318013 448.17267725 317.99137306 448.1723671 C317.03672451 448.17221282 316.08207596 448.17205854 315.09849866 448.17189959 C308.38243652 448.17103744 301.66637718 448.17249085 294.95031548 448.17484665 C286.76101271 448.17765616 278.57171953 448.17688213 270.38241787 448.17156591 C266.20690585 448.16894432 262.03140979 448.16789761 257.8558979 448.17121506 C254.02841877 448.17420991 250.20097028 448.17253241 246.3734939 448.16723751 C244.34409473 448.16560355 242.3146934 448.16884241 240.2852965 448.17229474 C218.16471413 448.12518476 218.16471413 448.12518476 212.82995224 443.03855133 C206.12873884 433.96662564 205.71658148 425.96495864 205.36510849 415.04245758 C205.28642572 412.85039694 205.20764632 410.65833976 205.12878036 408.46628571 C205.01068225 405.06229555 204.89436762 401.65825819 204.78039169 398.2541275 C203.94120435 367.43296317 203.94120435 367.43296317 199.20495224 337.03855133 C198.94407822 335.87468903 198.68320419 334.71082672 198.4144249 333.51169586 C189.60370351 295.60342534 171.98932083 258.8587382 146.82995224 229.03855133 C146.3587999 228.47861481 145.88764755 227.91867828 145.40221786 227.34177399 C143.82041882 225.46574444 142.23296213 223.5947004 140.64245224 221.72605133 C140.14302109 221.13872223 139.64358994 220.55139313 139.12902451 219.94626617 C136.82115113 217.25854811 134.50734912 214.72387025 131.96667099 212.24558258 C129.82995224 210.03855133 129.82995224 210.03855133 129.82995224 208.03855133 C129.21120224 207.79105133 128.59245224 207.54355133 127.95495224 207.28855133 C125.42636597 205.80114764 125.1115622 204.60177124 123.82995224 202.03855133 C123.25116318 201.76011383 122.67237411 201.48167633 122.07604599 201.19480133 C119.20271254 199.71565924 117.23460551 197.76447744 114.89245224 195.53855133 C108.85917669 189.92627344 102.4622639 184.91994868 95.82995224 180.03855133 C94.84768661 179.31023102 93.86542099 178.58191071 92.85338974 177.83152008 C65.04751617 157.89319988 33.58925971 146.54660337 1.26745224 136.26511383 C0.02608505 135.87017731 -1.21528214 135.47524078 -2.49426651 135.06833649 C-6.34818419 133.98864568 -10.10013833 133.26417058 -14.04504776 132.60105133 C-21.37279815 131.23774893 -27.77536299 128.78360494 -32.87317276 123.15964508 C-35.61360528 118.67755213 -35.3657402 113.4933216 -35.48645401 108.37448883 C-35.50732574 107.60970215 -35.52819748 106.84491547 -35.54970169 106.05695343 C-35.61648057 103.50926058 -35.67527581 100.96147478 -35.73254776 98.41355133 C-35.75339432 97.53316193 -35.77424088 96.65277252 -35.79571915 95.74570465 C-36.1663708 79.76086062 -36.27750508 63.77732389 -36.29504776 47.78855133 C-36.29763596 46.69645355 -36.30022415 45.60435577 -36.30289078 44.47916412 C-36.36498497 11.3520687 -36.36498497 11.3520687 -32.17004776 6.03855133 C-26.6477465 1.57466681 -21.96195272 0.27850174 -14.96814346 0.23435211 C-14.06444928 0.21028856 -13.1607551 0.18622501 -12.22967625 0.16143227 C-8.15345045 0.06714323 -4.07693727 0.04958012 0 0 Z " fill="#FEFEFE" transform="translate(730.1700477600098,567.9614486694336)"/>
<path d="M0 0 C7.6457671 -0.00163993 15.29153207 -0.00459657 22.93729824 -0.00870216 C36.31642199 -0.015864 49.695531 -0.01719175 63.07465577 -0.01226884 C67.54906103 -0.0107657 72.02345741 -0.01139355 76.4978621 -0.01402742 C115.4897668 -0.03382264 115.4897668 -0.03382264 133.34302926 0.44291419 C134.46432953 0.46487797 135.5856298 0.48684176 136.74090886 0.50947112 C144.71297562 0.77833323 151.85556588 1.70708363 158.6363337 6.13750952 C161.51574238 10.62416178 161.25064346 14.64582741 161.19874215 19.87577552 C161.20750375 20.9592678 161.21626534 22.04276007 161.22529244 23.15908545 C161.24729327 26.73961711 161.23272889 30.318913 161.215832 33.89945716 C161.21920014 36.3890073 161.22405274 38.87855583 161.23032784 41.36810035 C161.23864447 47.25417411 161.2211509 53.13979997 161.194574 59.0258081 C161.17580939 63.714911 161.18243336 68.40348903 161.20362496 73.09257239 C161.2326141 79.56292222 161.23714926 86.03276514 161.22084832 92.50315779 C161.21751408 94.96831174 161.22160195 97.43348731 161.23324609 99.89861602 C161.24595507 103.34601023 161.22657332 106.7917832 161.19874215 110.23905677 C161.20886331 111.2569126 161.21898446 112.27476844 161.22941232 113.32346839 C161.1623161 117.8130441 161.08681648 121.08075584 158.20396066 124.6655857 C151.76888694 130.62591658 145.21720272 132.17365165 136.8642695 134.12211341 C89.64396045 145.7949922 46.2924414 164.73409613 10.11036325 197.90726966 C8.5517695 199.12211341 8.5517695 199.12211341 6.5517695 199.12211341 C6.2217695 200.11211341 5.8917695 201.10211341 5.5517695 202.12211341 C4.168957 203.44633216 4.168957 203.44633216 2.4267695 204.80961341 C-0.86101966 207.53947471 -3.63035761 210.43537035 -6.38963675 213.69242591 C-7.93733496 215.51912095 -9.51242513 217.32266287 -11.10057425 219.11430091 C-32.37092024 243.20691427 -49.1135744 271.04047062 -60.4482305 301.12211341 C-60.88393363 302.25004309 -61.31963675 303.37797278 -61.768543 304.54008216 C-63.07461213 308.04346882 -64.28905161 311.5681763 -65.4482305 315.12211341 C-65.68928519 315.85285071 -65.93033988 316.58358802 -66.17869925 317.33646888 C-74.59172576 343.30688381 -76.440323 370.00839706 -76.9482305 397.12211341 C-77.67998374 436.18542621 -77.67998374 436.18542621 -86.8146894 446.17464644 C-92.05194019 450.04752046 -98.22173983 449.35325663 -104.47899222 449.25823706 C-106.01464954 449.26789837 -107.5502863 449.28148513 -109.08587813 449.29864419 C-113.29437389 449.33422059 -117.50100363 449.31380513 -121.70947528 449.28397638 C-126.25224574 449.26153641 -130.79472387 449.29096493 -135.3374517 449.31371802 C-144.23206131 449.34987572 -153.1259715 449.33753051 -162.02058053 449.30797923 C-169.24958979 449.28491571 -176.47840652 449.2798029 -183.70744681 449.28751677 C-185.25100783 449.28915233 -185.25100783 449.28915233 -186.8257519 449.29082094 C-188.91625783 449.29312618 -191.00676371 449.29547839 -193.09726954 449.29787707 C-212.69800455 449.31836659 -232.29835478 449.28447071 -251.89901018 449.23145788 C-268.71570119 449.1871617 -285.53190973 449.18711871 -302.34862113 449.2200138 C-321.87937344 449.25818481 -341.40984948 449.27064233 -360.94062591 449.24085438 C-363.02342196 449.23773581 -365.10621806 449.2346436 -367.1890142 449.23157805 C-368.21377762 449.23004886 -369.23854104 449.22851967 -370.2943579 449.22694414 C-377.51430501 449.21788607 -384.73409824 449.22701997 -391.95402884 449.24304122 C-400.7534081 449.26199548 -409.55220127 449.25220133 -418.3514874 449.2057432 C-422.84083467 449.18273717 -427.32923799 449.17246669 -431.81859946 449.19688147 C-435.92978684 449.2188629 -440.03912507 449.20380753 -444.15011597 449.15939008 C-445.63585254 449.14977171 -447.1217505 449.15358018 -448.60740042 449.17228789 C-461.07169022 449.31669373 -461.07169022 449.31669373 -466.23530936 444.28476351 C-467.98861861 442.19016659 -467.98861861 442.19016659 -469.4482305 440.12211341 C-469.88445794 439.50774312 -470.32068538 438.89337284 -470.77013183 438.26038527 C-474.70030846 432.04850099 -474.5957361 425.54573476 -474.57762504 418.46146888 C-474.58025352 417.18696624 -474.58025352 417.18696624 -474.58293509 415.88671607 C-474.58732301 413.08755667 -474.5844248 410.28846091 -474.581043 407.48930091 C-474.5817173 405.53122176 -474.58268837 403.5731427 -474.58394217 401.61506385 C-474.58541532 397.5112858 -474.58327826 393.40752954 -474.5786016 389.30375403 C-474.57292719 384.07224956 -474.5761712 378.84079666 -474.58217406 373.60929412 C-474.58580937 369.56326149 -474.58462713 365.51724081 -474.58204627 361.4712078 C-474.58138402 359.54411169 -474.58218061 357.61701445 -474.58452582 355.68991965 C-474.61412039 324.51610678 -474.61412039 324.51610678 -469.09276175 318.69242591 C-464.23989796 314.2761951 -459.93236998 313.99611103 -453.61412215 314.00185889 C-452.43994668 314.00048454 -451.26577121 313.99911019 -450.05601466 313.99769419 C-448.76996462 314.00128916 -447.48391459 314.00488412 -446.15889335 314.00858802 C-444.77551347 314.00886808 -443.39213345 314.00870497 -442.00875366 314.00813693 C-438.20703067 314.00784127 -434.4053389 314.01377817 -430.60362315 314.02070683 C-426.50227193 314.02707939 -422.40091954 314.02765 -418.29956412 314.02888221 C-411.18751248 314.0317709 -404.0754712 314.03821462 -396.96342444 314.04694861 C-386.65119217 314.05951728 -376.33896374 314.06558346 -366.02672507 314.06988198 C-349.2570676 314.07695432 -332.48741494 314.08775519 -315.71776175 314.10160559 C-314.71385324 314.10243341 -313.70994472 314.10326122 -312.67561473 314.10411412 C-304.54285405 314.1108491 -296.41009352 314.11776533 -288.27733302 314.12471694 C-281.20050985 314.1307636 -274.12368663 314.13674672 -267.04686332 314.14262122 C-265.55284532 314.14386341 -265.55284532 314.14386341 -264.02864514 314.14513069 C-247.34824485 314.15887574 -230.66784447 314.168605 -213.98743999 314.17553157 C-203.72023722 314.17998574 -193.45304914 314.18796923 -183.1858532 314.20067638 C-176.12511678 314.20918241 -169.06438369 314.21401111 -162.00364248 314.21610159 C-157.94567045 314.21743037 -153.88771739 314.22033007 -149.82975173 314.22786063 C-140.03515634 314.24516914 -130.24242 314.22169543 -120.4482305 314.12211341 C-119.45224576 314.11290877 -119.45224576 314.11290877 -118.43614012 314.10351819 C-113.95768579 314.05940774 -109.4815208 313.97310986 -105.00416923 313.86600989 C-103.8721731 313.85229126 -102.74017697 313.83857262 -101.57387793 313.82443827 C-100.02678914 313.77672864 -100.02678914 313.77672864 -98.44844604 313.72805518 C-97.10088751 313.69756662 -97.10088751 313.69756662 -95.72610557 313.66646212 C-93.30089732 313.30893217 -93.30089732 313.30893217 -91.70993578 311.25611705 C-88.52630964 305.8714445 -88.23830649 301.20990995 -88.4482305 295.12211341 C-93.32194125 293.68866907 -97.74172422 292.9936717 -102.8232305 292.74711341 C-110.47739697 292.23209989 -116.57800957 290.52372684 -122.5107305 285.55961341 C-125.06444601 282.34687454 -125.57284881 279.95214121 -125.58194327 275.96978492 C-125.58620826 275.12475913 -125.59047324 274.27973334 -125.59486747 273.40910071 C-125.59441428 272.48496375 -125.5939611 271.56082679 -125.59349418 270.60868567 C-125.59853209 269.14464553 -125.59853209 269.14464553 -125.60367179 267.65102881 C-125.61319474 264.4135129 -125.61512611 261.17604872 -125.61619925 257.93851966 C-125.61941281 255.68468948 -125.62277696 253.43085952 -125.62628531 251.17702979 C-125.63228128 246.44330601 -125.63412493 241.70960049 -125.63353324 236.97587317 C-125.63343203 230.93376631 -125.64703975 224.89177805 -125.66430545 218.8496992 C-125.67547465 214.18859058 -125.67745088 209.52751008 -125.67692351 204.86638945 C-125.67809793 202.64064299 -125.68248925 200.41489566 -125.69025588 198.18916243 C-125.77871417 170.20045983 -125.77871417 170.20045983 -121.6982305 163.05961341 C-113.63202174 156.11371141 -103.58149273 156.90751437 -93.5107305 156.62211341 C-92.52088157 156.59226355 -92.52088157 156.59226355 -91.51103568 156.56181067 C-77.68251687 156.14620718 -63.85034301 155.91979875 -50.01781058 155.68488806 C-25.26213774 155.28326118 -25.26213774 155.28326118 -0.5107305 154.68461341 C0.62831735 154.65754309 1.7673652 154.63047278 2.94092965 154.60258216 C12.40972794 154.29613902 19.86211678 153.54426973 27.3017695 147.37211341 C28.10807809 146.74562903 28.10807809 146.74562903 28.93067575 146.10648841 C33.12486796 142.75929852 37.12477526 138.97610187 39.5517695 134.12211341 C-0.39181082 133.31488328 -40.32137977 132.94551394 -80.27214878 132.85679397 C-88.01020256 132.83932786 -95.74823638 132.81604144 -103.48627331 132.79237878 C-117.28925886 132.75022722 -131.09225063 132.7109559 -144.89525199 132.6743595 C-145.71054026 132.6721967 -146.52582854 132.67003389 -147.36582252 132.66780555 C-155.67539688 132.64579908 -163.98497205 132.62410501 -172.29454767 132.60257414 C-176.48566796 132.59170964 -180.67678813 132.58080255 -184.86790824 132.56986731 C-185.69578565 132.56770844 -186.52366306 132.56554958 -187.37662766 132.56332529 C-201.20314548 132.5271577 -215.02964992 132.48724373 -228.85614914 132.44456452 C-237.32124622 132.41860581 -245.78633951 132.39590141 -254.25145664 132.37758094 C-260.02394209 132.36486665 -265.79641151 132.34872347 -271.56888036 132.3299318 C-274.88639114 132.31925061 -278.2038724 132.31063719 -281.52139831 132.30523604 C-320.97562123 132.23850042 -320.97562123 132.23850042 -328.59117484 125.61323279 C-331.80366081 122.30712705 -332.15660975 119.67311837 -332.2169683 115.16276282 C-332.19853873 114.26811316 -332.18010917 113.3734635 -332.16112113 112.45170325 C-332.16520988 111.49474555 -332.16929862 110.53778785 -332.17351127 109.55183142 C-332.1795165 106.39478773 -332.14259346 103.23984577 -332.1044805 100.08305091 C-332.09835956 97.87835441 -332.0946117 95.67365017 -332.09312797 93.46894568 C-332.08392653 88.84701158 -332.05510773 84.22577529 -332.0107305 79.604047 C-331.95436528 73.70658217 -331.9323259 67.80966842 -331.92336631 61.91195983 C-331.91299977 56.26058722 -331.88394014 50.60935013 -331.8544805 44.95805091 C-331.85071906 43.89182879 -331.84695762 42.82560668 -331.84308219 41.7270748 C-331.70733347 11.92052961 -331.70733347 11.92052961 -326.9482305 6.99711341 C-326.1232305 6.37836341 -325.2982305 5.75961341 -324.4482305 5.12211341 C-323.7882305 4.46211341 -323.1282305 3.80211341 -322.4482305 3.12211341 C-318.55034642 2.04953766 -314.70689029 1.93419379 -310.68013358 1.81683081 C-309.69427516 1.78690561 -309.69427516 1.78690561 -308.6885004 1.75637585 C-306.52372024 1.69248211 -304.35883075 1.63550867 -302.19383597 1.5793888 C-301.44077729 1.55863795 -300.68771861 1.53788711 -299.91183996 1.51650745 C-284.19500984 1.0842764 -268.47833565 0.90814319 -252.75618839 0.81881565 C-249.6431197 0.80057878 -246.5300711 0.77960237 -243.41701871 0.75879133 C-233.04403909 0.68970305 -222.67101051 0.6313145 -212.29795671 0.57466906 C-208.64795083 0.55450071 -204.99795036 0.53343139 -201.34794945 0.51238817 C-134.23233063 0.12654702 -67.1166426 0.01407372 0 0 Z " fill="#FEFEFE" transform="translate(507.4482305049896,567.8778865933418)"/>
<path d="M0 0 C3.30823328 -0.00194047 6.61646654 -0.00391435 9.92469978 -0.0059185 C10.74508886 -0.00640532 11.56547793 -0.00689213 12.41072728 -0.0073937 C25.96932174 -0.01585614 39.52783284 -0.04157805 53.08639022 -0.07349918 C67.24785268 -0.10655666 81.40927173 -0.1245731 95.57077295 -0.1277768 C103.42954418 -0.12992416 111.28818681 -0.13842965 119.14691925 -0.16423798 C125.75464241 -0.18591143 132.36220426 -0.19400502 138.96995898 -0.18427119 C142.32410436 -0.17974089 145.67764575 -0.1837478 149.03178978 -0.20103264 C152.67009511 -0.21874125 156.30755754 -0.21165309 159.94586372 -0.19849968 C160.99050999 -0.20946893 162.03515626 -0.22043817 163.11145848 -0.23173982 C171.53443491 -0.15837366 180.18465049 1.26142677 186.32826424 7.47674751 C191.04884882 13.83463592 191.06155458 21.95502813 191.00868416 29.58172798 C191.0105825 30.46270149 191.01248085 31.343675 191.01443672 32.25134468 C191.01811284 35.1364681 191.00748271 38.02133431 190.99623299 40.90643501 C190.99503891 42.92988239 190.9945885 44.95333032 190.99484444 46.97677803 C190.99328484 51.20808597 190.98503707 55.43930867 190.97157478 59.67059517 C190.95460779 65.06914695 190.95076025 70.4676051 190.95151997 75.86618042 C190.95124675 80.04256252 190.94574101 84.21892453 190.93851852 88.39529991 C190.93535693 90.38462485 190.93337038 92.37395204 190.93262482 94.36327934 C190.91117768 121.68064896 190.91117768 121.68064896 187.80482674 126.04315376 C186.6098658 126.93840767 186.6098658 126.93840767 185.39076424 127.85174751 C184.59927986 128.47178658 183.80779549 129.09182564 182.99232674 129.73065376 C178.55987194 132.83337212 176.47166822 133.5415501 171.03704929 133.55489635 C170.34603889 133.55930122 169.65502848 133.56370608 168.94307837 133.56824443 C166.61034249 133.58062876 164.27783526 133.57868663 161.94507027 133.57686043 C160.26256156 133.58274131 158.58005566 133.58947967 156.8975535 133.59700531 C152.26038543 133.61512363 147.62327417 133.62060458 142.98607504 133.62399209 C137.9899601 133.62973933 132.99388189 133.64686406 127.99778938 133.66234016 C115.92473908 133.69713089 103.85169171 133.71268408 91.77860221 133.72646347 C86.0950916 133.733421 80.41158463 133.74257863 74.72807693 133.75157166 C55.83757613 133.78078093 36.94707892 133.80557339 18.05655766 133.81619549 C16.84692564 133.81688618 15.63729362 133.81757688 14.39100609 133.8182885 C12.57217383 133.81932652 12.57217383 133.81932652 10.7165975 133.82038552 C8.25943497 133.82179752 5.80227245 133.82321833 3.34510994 133.8246479 C1.51684719 133.82570566 1.51684719 133.82570566 -0.34835016 133.82678478 C-20.09349945 133.83903248 -39.83845662 133.88181925 -59.5835262 133.9375881 C-79.84931744 133.99436347 -100.11501156 134.02484541 -120.38088316 134.02920765 C-131.76186947 134.03229049 -143.14258905 134.04680708 -154.52349854 134.09048843 C-164.21616046 134.1275849 -173.90848347 134.1407735 -183.60120619 134.12278355 C-188.54640245 134.1143282 -193.49090663 134.11717892 -198.43601227 134.15060234 C-202.96603357 134.18094905 -207.49485082 134.17880069 -212.02487843 134.15111434 C-213.66090453 134.1467772 -215.29701451 134.15420495 -216.93291689 134.17478735 C-226.79750199 134.2911095 -233.72914407 133.39197656 -241.23423576 126.28924751 C-246.57980815 120.94367513 -247.45111731 114.80988102 -247.51640129 107.55291939 C-247.51392387 106.7132563 -247.51144646 105.87359322 -247.50889397 105.00848579 C-247.5140049 104.10508461 -247.51911583 103.20168343 -247.52438164 102.27090645 C-247.53822072 99.30038923 -247.53732507 96.33010553 -247.53501701 93.35956001 C-247.53890719 91.28362124 -247.54324252 89.20768325 -247.54800224 87.13174629 C-247.55545234 82.78594568 -247.55518203 78.44022634 -247.54990959 74.09442329 C-247.54411802 68.54081221 -247.56104448 62.98753496 -247.58425426 57.43397903 C-247.59902651 53.14786032 -247.59985852 48.86182135 -247.59674454 44.57568169 C-247.59725604 42.52887372 -247.60246146 40.48206108 -247.61255646 38.43527794 C-247.62497066 35.56623432 -247.61809925 32.69783258 -247.60655022 29.82879829 C-247.61419395 28.99318367 -247.62183769 28.15756905 -247.62971306 27.29663277 C-247.55870906 19.26742108 -245.83349954 12.21557969 -240.17173576 6.28924751 C-239.4795092 5.54674751 -238.78728264 4.80424751 -238.07407951 4.03924751 C-234.50900871 0.64826722 -231.02620101 1.1204232 -226.35635185 1.08888435 C-225.52725341 1.07948336 -224.69815497 1.07008237 -223.84393233 1.06039649 C-221.02834123 1.02992802 -218.21273921 1.00679604 -215.39707756 0.98382759 C-213.36100349 0.96393719 -211.32493239 0.94374054 -209.28886414 0.92326355 C-203.64204248 0.86833224 -197.99518011 0.82086674 -192.34827447 0.77547622 C-188.72516987 0.7461103 -185.10208126 0.71519089 -181.47899246 0.68394089 C-120.98721422 0.1678444 -60.49374356 0.03478495 0 0 Z " fill="#FEFEFE" transform="translate(708.2342357635498,409.7107524871826)"/>
<path d="M0 0 C0.8918747 -0.00241442 1.7837494 -0.00482883 2.70265061 -0.00731641 C5.68246262 -0.01293723 8.66205867 -0.00430063 11.64186096 0.00431824 C13.78532977 0.00324452 15.9287983 0.0013045 18.07226562 -0.00143433 C23.90656933 -0.00628806 29.74079663 0.00139294 35.57509112 0.01151872 C41.74578932 0.0203553 47.91648549 0.01854026 54.08718872 0.01815796 C65.1784921 0.01915634 76.26976328 0.02948624 87.36105639 0.04406001 C97.26650913 0.05689772 107.1719456 0.06242132 117.07740784 0.06193542 C216.59974055 0.05765306 216.59974055 0.05765306 255.70837903 0.66524673 C257.68536944 0.69594591 259.66237826 0.72545212 261.63938713 0.75493813 C265.15548857 0.80971532 268.67136234 0.87152551 272.18727112 0.93742371 C273.16697184 0.95354643 274.14667255 0.96966915 275.15606117 0.98628044 C290.72848708 1.31866639 290.72848708 1.31866639 294.93312073 4.55973816 C297.77896858 8.38384621 298.05516783 11.41061874 298.10047913 16.09841919 C298.11196991 17.07273392 298.12346069 18.04704865 298.13529968 19.05088806 C298.14270172 20.1133374 298.15010376 21.17578674 298.1577301 22.27043152 C298.16912018 23.39439835 298.18051025 24.51836517 298.19224548 25.6763916 C298.28957175 36.01402649 298.34113387 46.35224513 298.37793732 56.69026852 C298.40553648 64.32859045 298.45637733 71.96598647 298.53841162 79.60392278 C298.60091729 85.62781037 298.62515411 91.65126693 298.63619995 97.67549324 C298.64662635 100.23644735 298.66911092 102.79738144 298.70379639 105.35812187 C298.74979538 108.93771891 298.75202626 112.51482515 298.7436676 116.09465027 C298.76726349 117.15507538 298.79085938 118.21550049 298.81517029 119.30805969 C298.80410248 120.28519424 298.79303467 121.2623288 298.78163147 122.26907349 C298.7867852 123.11469314 298.79193893 123.96031279 298.79724884 124.83155727 C297.68814741 127.93206411 295.95831321 129.49575931 293.21673608 131.2656216 C288.54498267 133.27378401 283.61780041 132.94177855 278.61088562 132.90234375 C276.74933942 132.91721873 276.74933942 132.91721873 274.85018623 132.93239421 C271.41684342 132.95465938 267.98483655 132.95458576 264.55152392 132.94483864 C260.84447938 132.93969427 257.13759865 132.96325807 253.43061829 132.98297119 C246.17270106 133.01675188 238.91500954 133.02310834 231.65702428 133.01898304 C225.75668814 133.01589072 219.85642158 133.0214515 213.95609665 133.03313255 C212.25556974 133.03643647 210.55504282 133.03974006 208.85451591 133.04304332 C208.00807765 133.0446901 207.16163939 133.04633688 206.28955148 133.04803356 C190.28658776 133.07780317 174.2837532 133.07460163 158.28077565 133.06167939 C143.64689877 133.05093516 129.01347946 133.08301545 114.3797033 133.13513807 C99.34684232 133.18826766 84.31419946 133.21167596 69.28124321 133.20329779 C60.84409746 133.19914259 52.4073617 133.20685039 43.97029495 133.24590492 C36.78746304 133.27885178 29.60527607 133.28380972 22.42242421 133.25281516 C18.75915141 133.23777962 15.09707194 133.23548783 11.43388748 133.26817322 C7.45845255 133.3032444 3.48480531 133.27603394 -0.49067688 133.24291992 C-1.64253475 133.26281205 -2.79439262 133.28270419 -3.98115528 133.30319911 C-11.28651553 133.17370583 -15.08069752 131.54054622 -20.34494889 126.45051497 C-25.33327449 120.0677586 -25.21608897 112.33791775 -25.1962738 104.60246277 C-25.19802612 103.75440063 -25.19977844 102.9063385 -25.20158386 102.03257751 C-25.20597221 99.2382246 -25.20307315 96.44393543 -25.19969177 93.64958191 C-25.20036611 91.6938984 -25.20133723 89.73821497 -25.20259094 87.78253174 C-25.2040642 83.68294985 -25.2019269 79.58338977 -25.19725037 75.48381042 C-25.19157975 70.26137249 -25.19481746 65.03898626 -25.20082283 59.81655025 C-25.2044611 55.77476625 -25.2032745 51.73299419 -25.20069504 47.69120979 C-25.2000334 45.76773128 -25.20082716 43.84425165 -25.20317459 41.92077446 C-25.23144972 12.21751081 -25.23144972 12.21751081 -21.06687927 6.24723816 C-15.00737658 0.35605499 -8.0141503 -0.0500811 0 0 Z " fill="#FEFEFE" transform="translate(58.06687927246094,725.7527618408203)"/>
<path d="M0 0 C0.98662371 -0.00260775 1.97324741 -0.00521549 2.9897688 -0.00790226 C4.61988048 -0.00455618 4.61988048 -0.00455618 6.2829237 -0.0011425 C7.43533792 -0.00270249 8.58775215 -0.00426248 9.77508801 -0.00586975 C12.97934118 -0.00917565 16.18355667 -0.00797567 19.38780892 -0.00488353 C22.84204603 -0.00262633 26.29627794 -0.00611083 29.75051403 -0.00886345 C36.52265473 -0.01331824 43.29478437 -0.01234551 50.0669255 -0.00945081 C55.57588859 -0.00719359 61.08484857 -0.00688565 66.59381199 -0.00797462 C67.37756599 -0.00812786 68.16131999 -0.00828109 68.96882411 -0.00843897 C70.56108728 -0.0087587 72.15335044 -0.00908291 73.7456136 -0.00941156 C88.69283397 -0.01226603 103.64004823 -0.00898092 118.5872676 -0.00361119 C131.39330868 0.00084722 144.19934068 0.00008881 157.00538158 -0.00452995 C171.88160339 -0.00989288 186.7578198 -0.01198123 201.63404244 -0.00891769 C203.22385291 -0.00859916 204.81366338 -0.00828478 206.40347385 -0.00797462 C207.18562624 -0.00782035 207.96777862 -0.00766607 208.77363259 -0.00750712 C214.26591056 -0.0066464 219.75818509 -0.00809545 225.25046253 -0.01045418 C231.95910291 -0.01327189 238.66773159 -0.01247297 245.37637065 -0.00717343 C248.79475721 -0.00456141 252.21312436 -0.00348841 255.63151073 -0.00682259 C293.95770853 -0.03518288 293.95770853 -0.03518288 300.23462963 5.12584114 C304.72770745 12.01522713 304.39268601 19.61351693 304.42750072 27.54991341 C304.43567822 28.58639015 304.44385571 29.6228669 304.452281 30.69075203 C304.47702116 34.10791137 304.49361596 37.5250297 304.50806713 40.94224739 C304.51339081 42.11098837 304.51871449 43.27972935 304.52419949 44.48388672 C304.55087309 50.66230169 304.57027217 56.8406968 304.58472729 63.01915169 C304.5981005 68.13391556 304.62602408 73.24828369 304.66675854 78.36290169 C304.71596941 84.54252923 304.74083298 90.72179619 304.74795437 96.90161133 C304.75467894 99.2559872 304.76993203 101.61035465 304.79384518 103.96461868 C304.82536764 107.25389784 304.82555322 110.54177366 304.81812572 113.83116341 C304.83453106 114.80428978 304.85093639 115.77741615 304.86783886 116.7800312 C304.82557799 121.34481893 304.79980427 123.4146313 301.88566113 127.0817585 C301.01082073 127.75630577 300.13598034 128.43085304 299.23462963 129.12584114 C298.79090037 129.6550987 298.34717111 130.18435626 297.88999552 130.72965193 C295.59294849 132.6670558 294.07908385 132.50389391 291.09774399 132.50895119 C289.49360589 132.52253615 289.49360589 132.52253615 287.85706097 132.53639555 C286.08831621 132.52840366 286.08831621 132.52840366 284.28383923 132.52025032 C282.40987718 132.52938698 282.40987718 132.52938698 280.49805731 132.53870821 C277.02360933 132.55515969 273.54938748 132.55277934 270.0749141 132.54733324 C266.3304505 132.54466942 262.58604806 132.55918258 258.841609 132.5714283 C251.50330807 132.59251184 244.16508609 132.59702149 236.82675845 132.59524041 C230.86384849 132.59393429 224.90096322 132.59772928 218.9380579 132.60516548 C217.222359 132.60726461 215.50666011 132.60936221 213.79096121 132.6114583 C212.51015261 132.61302359 212.51015261 132.61302359 211.20346909 132.61462051 C195.04427912 132.63353458 178.88513453 132.63246907 162.72593807 132.62565118 C147.93334733 132.62007449 133.14092972 132.64090442 118.34837944 132.67401165 C103.16992364 132.7077197 87.99155084 132.72292062 72.81305689 132.71829462 C64.28724277 132.71604704 55.76158868 132.72133502 47.23580647 132.74618721 C39.97783821 132.76716313 32.72011773 132.77082943 25.46213944 132.75188762 C21.75724457 132.74270673 18.05281214 132.74165768 14.34795284 132.76224327 C10.33573985 132.78429056 6.32462445 132.76779356 2.31240368 132.7473011 C1.13547123 132.75981895 -0.04146123 132.7723368 -1.2540583 132.78523397 C-9.1145205 132.69867376 -9.1145205 132.69867376 -12.4147625 129.79403114 C-13.08331339 128.47327709 -13.08331339 128.47327709 -13.76537037 127.12584114 C-14.32224537 126.03271614 -14.87912037 124.93959114 -15.45287037 123.81334114 C-17.77842293 117.27964586 -17.91391465 110.68270553 -17.8947649 103.82066536 C-17.89651722 103.03243889 -17.89826954 102.24421242 -17.90007496 101.4321003 C-17.90444491 98.84822009 -17.90157096 96.26440944 -17.89818287 93.68052864 C-17.89885771 91.86462071 -17.89982923 90.04871287 -17.90108204 88.23280525 C-17.90255279 84.4318423 -17.90042599 80.63090291 -17.89574146 76.8299427 C-17.89006905 71.9955264 -17.89331133 67.16116593 -17.89931393 62.32675171 C-17.90295733 58.57573731 -17.90176332 54.82473576 -17.89918613 51.07372093 C-17.898526 49.29341436 -17.89931277 47.51310657 -17.90166569 45.73280144 C-17.93761175 10.86962243 -17.93761175 10.86962243 -12.33958912 4.50474739 C-8.37472663 1.03180332 -5.14038852 0.00097723 0 0 Z " fill="#FEFEFE" transform="translate(1026.7653703689575,725.8741588592529)"/>
</svg>
