<?xml version="1.0" standalone="no"?>
<!DOCTYPE svg PUBLIC "-//W3C//DTD SVG 20010904//EN"
 "http://www.w3.org/TR/2001/REC-SVG-20010904/DTD/svg10.dtd">
<svg version="1.0" xmlns="http://www.w3.org/2000/svg"
 width="1024.000000pt" height="1024.000000pt" viewBox="0 0 1024.000000 1024.000000"
 preserveAspectRatio="xMidYMid meet">

<g transform="translate(0.000000,1024.000000) scale(0.100000,-0.100000)"
fill="#000000" stroke="none">
<path d="M5043 7160 l-1482 -5 -28 -21 c-15 -11 -38 -38 -50 -60 -22 -38 -23
-45 -23 -411 0 -358 1 -373 21 -407 11 -19 40 -46 64 -60 l44 -26 1522 0 1522
0 43 27 c23 15 48 38 53 51 7 15 11 158 11 408 0 338 -2 390 -17 421 -22 48
-77 80 -144 85 -30 2 -721 1 -1536 -2z"/>
<path d="M2390 5970 c-911 -5 -978 -6 -1003 -23 -63 -41 -62 -31 -62 -473 l0
-402 25 -27 c55 -58 -35 -55 1407 -55 769 0 1334 -4 1342 -9 12 -8 12 -13 -2
-35 -22 -32 -112 -105 -152 -121 -21 -9 -164 -14 -499 -18 -430 -6 -471 -8
-504 -25 -73 -38 -71 -20 -74 -482 -3 -387 -2 -417 15 -442 29 -42 96 -68 176
-68 104 0 119 -24 77 -125 -8 -19 -24 -39 -35 -43 -11 -4 -633 -5 -1383 -2
-1081 4 -1369 3 -1390 -7 -14 -7 -37 -27 -50 -45 -23 -33 -23 -34 -26 -410 -2
-238 1 -391 7 -415 6 -23 27 -55 51 -78 l41 -40 1390 0 1391 0 33 37 c18 20
38 53 44 75 6 21 11 130 11 243 1 218 23 428 59 543 5 17 18 59 27 92 9 33 20
65 24 70 4 6 13 28 20 50 24 75 129 285 185 368 106 158 249 324 367 425 75
64 250 192 264 192 2 0 38 21 80 46 128 78 410 179 649 233 35 8 60 22 82 46
l33 35 0 413 0 414 -22 20 c-55 50 -22 48 -848 48 -426 0 -1214 -2 -1750 -5z"/>
<path d="M5320 5972 c-47 -13 -87 -41 -99 -69 -8 -21 -11 -137 -9 -420 3 -377
4 -393 24 -420 25 -34 98 -73 138 -73 17 0 48 -6 71 -14 22 -8 60 -19 85 -26
25 -7 115 -37 200 -67 143 -51 208 -81 300 -138 19 -12 42 -24 50 -28 32 -14
181 -125 264 -197 79 -67 184 -180 274 -293 165 -207 323 -549 362 -787 5 -25
13 -72 20 -105 6 -33 15 -179 19 -325 6 -222 9 -270 24 -295 28 -50 54 -76 88
-85 18 -5 610 -9 1380 -10 1492 0 1392 -5 1445 66 l29 38 -3 400 c-4 439 -3
434 -65 479 -27 21 -28 21 -1411 18 l-1384 -3 -12 22 c-6 12 -12 49 -13 83
l-2 62 90 5 c100 6 161 30 182 71 10 18 12 127 12 434 -1 226 -4 421 -8 434
-13 46 -47 60 -186 72 -71 6 -157 10 -190 9 -77 -4 -78 -4 -411 1 l-282 4 -54
37 c-73 51 -122 103 -115 122 6 14 138 16 1332 16 1299 0 1327 0 1364 20 22
11 48 35 60 53 20 33 21 46 21 418 l0 384 -25 38 c-48 70 99 65 -1810 70 -952
3 -1741 3 -1755 -1z"/>
<path d="M385 4791 c-56 -8 -81 -19 -110 -51 -19 -21 -20 -39 -23 -409 -4
-430 -2 -444 58 -492 l35 -28 1133 -1 1132 -1 30 21 30 21 0 443 c0 483 3 454
-55 484 -23 11 -2151 24 -2230 13z"/>
<path d="M7671 4790 c-61 -15 -83 -47 -92 -142 -12 -123 -10 -695 2 -748 6
-25 20 -55 31 -67 l21 -23 1143 0 1142 0 31 29 31 29 2 354 c2 514 2 513 -64
553 -27 16 -108 17 -1121 20 -601 2 -1107 -1 -1126 -5z"/>
</g>
</svg>
